%TF.GenerationSoftware,KiCad,Pcbnew,(5.1.9)-1*%
%TF.CreationDate,2022-01-19T20:33:04-05:00*%
%TF.ProjectId,gamepad_alpha,67616d65-7061-4645-9f61-6c7068612e6b,rev?*%
%TF.SameCoordinates,Original*%
%TF.FileFunction,Copper,L4,Bot*%
%TF.FilePolarity,Positive*%
%FSLAX46Y46*%
G04 Gerber Fmt 4.6, Leading zero omitted, Abs format (unit mm)*
G04 Created by KiCad (PCBNEW (5.1.9)-1) date 2022-01-19 20:33:04*
%MOMM*%
%LPD*%
G01*
G04 APERTURE LIST*
%TA.AperFunction,ComponentPad*%
%ADD10C,1.879600*%
%TD*%
%TA.AperFunction,ComponentPad*%
%ADD11O,1.700000X1.700000*%
%TD*%
%TA.AperFunction,ComponentPad*%
%ADD12R,1.700000X1.700000*%
%TD*%
%TA.AperFunction,ComponentPad*%
%ADD13C,6.350000*%
%TD*%
%TA.AperFunction,ViaPad*%
%ADD14C,0.660400*%
%TD*%
%TA.AperFunction,Conductor*%
%ADD15C,0.254000*%
%TD*%
G04 APERTURE END LIST*
D10*
%TO.P,J19,4*%
%TO.N,/PICO_I2C0_SCL*%
X68580000Y-162560000D03*
%TO.P,J19,3*%
%TO.N,/PICO_I2C0_SDA*%
X66040000Y-162560000D03*
%TO.P,J19,2*%
%TO.N,+3V3*%
X63500000Y-162560000D03*
%TO.P,J19,1*%
%TO.N,GND*%
X60960000Y-162560000D03*
%TD*%
%TO.P,J13,3*%
%TO.N,/5V0*%
X64770000Y-131318000D03*
%TO.P,J13,2*%
X62230000Y-131318000D03*
%TO.P,J13,1*%
X59690000Y-131318000D03*
%TD*%
%TO.P,J12,3*%
%TO.N,+3V3*%
X64770000Y-136398000D03*
%TO.P,J12,2*%
X62230000Y-136398000D03*
%TO.P,J12,1*%
X59690000Y-136398000D03*
%TD*%
%TO.P,J11,3*%
%TO.N,GND*%
X64770000Y-133858000D03*
%TO.P,J11,2*%
X62230000Y-133858000D03*
%TO.P,J11,1*%
X59690000Y-133858000D03*
%TD*%
D11*
%TO.P,U1,43*%
%TO.N,Net-(U1-Pad43)*%
X44450000Y-173125000D03*
D12*
%TO.P,U1,42*%
%TO.N,GND*%
X41910000Y-173125000D03*
D11*
%TO.P,U1,41*%
%TO.N,Net-(U1-Pad41)*%
X39370000Y-173125000D03*
%TO.P,U1,40*%
%TO.N,/5V0*%
X50800000Y-125095000D03*
%TO.P,U1,39*%
%TO.N,Net-(U1-Pad39)*%
X50800000Y-127635000D03*
D12*
%TO.P,U1,38*%
%TO.N,GND*%
X50800000Y-130175000D03*
D11*
%TO.P,U1,37*%
%TO.N,Net-(U1-Pad37)*%
X50800000Y-132715000D03*
%TO.P,U1,36*%
%TO.N,+3V3*%
X50800000Y-135255000D03*
%TO.P,U1,35*%
%TO.N,/PICO_ADC_REF*%
X50800000Y-137795000D03*
%TO.P,U1,34*%
%TO.N,/PICO_ADC2*%
X50800000Y-140335000D03*
D12*
%TO.P,U1,33*%
%TO.N,GND*%
X50800000Y-142875000D03*
D11*
%TO.P,U1,32*%
%TO.N,/PICO_ADC1*%
X50800000Y-145415000D03*
%TO.P,U1,31*%
%TO.N,/PICO_ADC0*%
X50800000Y-147955000D03*
%TO.P,U1,30*%
%TO.N,/PICO_RUN*%
X50800000Y-150495000D03*
%TO.P,U1,29*%
%TO.N,/PICO_GP22*%
X50800000Y-153035000D03*
D12*
%TO.P,U1,28*%
%TO.N,GND*%
X50800000Y-155575000D03*
D11*
%TO.P,U1,27*%
%TO.N,/PICO_I2C0_SCL*%
X50800000Y-158115000D03*
%TO.P,U1,26*%
%TO.N,/PICO_I2C0_SDA*%
X50800000Y-160655000D03*
%TO.P,U1,25*%
%TO.N,/PICO_I2C1_SCL*%
X50800000Y-163195000D03*
%TO.P,U1,24*%
%TO.N,/PICO_I2C1_SDA*%
X50800000Y-165735000D03*
D12*
%TO.P,U1,23*%
%TO.N,GND*%
X50800000Y-168275000D03*
D11*
%TO.P,U1,22*%
%TO.N,/PICO_GP17*%
X50800000Y-170815000D03*
%TO.P,U1,21*%
%TO.N,/PICO_GP16*%
X50800000Y-173355000D03*
%TO.P,U1,20*%
%TO.N,/PICO_GP15*%
X33020000Y-173355000D03*
%TO.P,U1,19*%
%TO.N,/PICO_GP14*%
X33020000Y-170815000D03*
D12*
%TO.P,U1,18*%
%TO.N,GND*%
X33020000Y-168275000D03*
D11*
%TO.P,U1,17*%
%TO.N,/PICO_GP13*%
X33020000Y-165735000D03*
%TO.P,U1,16*%
%TO.N,/PICO_GP12*%
X33020000Y-163195000D03*
%TO.P,U1,15*%
%TO.N,/PICO_GP11*%
X33020000Y-160655000D03*
%TO.P,U1,14*%
%TO.N,/PICO_GP10*%
X33020000Y-158115000D03*
D12*
%TO.P,U1,13*%
%TO.N,GND*%
X33020000Y-155575000D03*
D11*
%TO.P,U1,12*%
%TO.N,/PICO_GP9*%
X33020000Y-153035000D03*
%TO.P,U1,11*%
%TO.N,/PICO_GP8*%
X33020000Y-150495000D03*
%TO.P,U1,10*%
%TO.N,/PICO_GP7*%
X33020000Y-147955000D03*
%TO.P,U1,9*%
%TO.N,/PICO_GP6*%
X33020000Y-145415000D03*
D12*
%TO.P,U1,8*%
%TO.N,GND*%
X33020000Y-142875000D03*
D11*
%TO.P,U1,7*%
%TO.N,/PICO_GP5*%
X33020000Y-140335000D03*
%TO.P,U1,6*%
%TO.N,/PICO_GP4*%
X33020000Y-137795000D03*
%TO.P,U1,5*%
%TO.N,/PICO_GP3*%
X33020000Y-135255000D03*
%TO.P,U1,4*%
%TO.N,/PICO_GP2*%
X33020000Y-132715000D03*
D12*
%TO.P,U1,3*%
%TO.N,GND*%
X33020000Y-130175000D03*
D11*
%TO.P,U1,2*%
%TO.N,/PICO_GP1*%
X33020000Y-127635000D03*
%TO.P,U1,1*%
%TO.N,/PICO_GP0*%
X33020000Y-125095000D03*
%TD*%
D10*
%TO.P,J18,4*%
%TO.N,/PICO_I2C1_SCL*%
X37338000Y-179959000D03*
%TO.P,J18,3*%
%TO.N,/PICO_I2C1_SDA*%
X34798000Y-179959000D03*
%TO.P,J18,2*%
%TO.N,+3V3*%
X32258000Y-179959000D03*
%TO.P,J18,1*%
%TO.N,GND*%
X29718000Y-179959000D03*
%TD*%
D13*
%TO.P,H4,P1*%
%TO.N,Net-(H4-PadP1)*%
X67310000Y-190500000D03*
%TD*%
%TO.P,H3,P1*%
%TO.N,Net-(H3-PadP1)*%
X67310000Y-127000000D03*
%TD*%
%TO.P,H2,P1*%
%TO.N,GND*%
X17780000Y-190500000D03*
%TD*%
%TO.P,H1,P1*%
%TO.N,GND*%
X17780000Y-127000000D03*
%TD*%
D11*
%TO.P,J16,8*%
%TO.N,+3V3*%
X45085000Y-184531000D03*
%TO.P,J16,7*%
X47625000Y-184531000D03*
%TO.P,J16,6*%
X50165000Y-184531000D03*
%TO.P,J16,5*%
X52705000Y-184531000D03*
%TO.P,J16,4*%
X55245000Y-184531000D03*
%TO.P,J16,3*%
X57785000Y-184531000D03*
%TO.P,J16,2*%
X60325000Y-184531000D03*
D12*
%TO.P,J16,1*%
X62865000Y-184531000D03*
%TD*%
D11*
%TO.P,J15,8*%
%TO.N,/ADC0*%
X45085000Y-179451000D03*
%TO.P,J15,7*%
%TO.N,/ADC1*%
X47625000Y-179451000D03*
%TO.P,J15,6*%
%TO.N,/ADC2*%
X50165000Y-179451000D03*
%TO.P,J15,5*%
%TO.N,/ADC3*%
X52705000Y-179451000D03*
%TO.P,J15,4*%
%TO.N,/ADC4*%
X55245000Y-179451000D03*
%TO.P,J15,3*%
%TO.N,/ADC5*%
X57785000Y-179451000D03*
%TO.P,J15,2*%
%TO.N,/ADC6*%
X60325000Y-179451000D03*
D12*
%TO.P,J15,1*%
%TO.N,/ADC7*%
X62865000Y-179451000D03*
%TD*%
D11*
%TO.P,J14,8*%
%TO.N,GND*%
X45085000Y-181991000D03*
%TO.P,J14,7*%
X47625000Y-181991000D03*
%TO.P,J14,6*%
X50165000Y-181991000D03*
%TO.P,J14,5*%
X52705000Y-181991000D03*
%TO.P,J14,4*%
X55245000Y-181991000D03*
%TO.P,J14,3*%
X57785000Y-181991000D03*
%TO.P,J14,2*%
X60325000Y-181991000D03*
D12*
%TO.P,J14,1*%
X62865000Y-181991000D03*
%TD*%
D11*
%TO.P,J10,8*%
%TO.N,/PICO_GP8*%
X22225000Y-160020000D03*
%TO.P,J10,7*%
%TO.N,/PICO_GP9*%
X22225000Y-162560000D03*
%TO.P,J10,6*%
%TO.N,/PICO_GP10*%
X22225000Y-165100000D03*
%TO.P,J10,5*%
%TO.N,/PICO_GP11*%
X22225000Y-167640000D03*
%TO.P,J10,4*%
%TO.N,/PICO_GP12*%
X22225000Y-170180000D03*
%TO.P,J10,3*%
%TO.N,/PICO_GP13*%
X22225000Y-172720000D03*
%TO.P,J10,2*%
%TO.N,/PICO_GP14*%
X22225000Y-175260000D03*
D12*
%TO.P,J10,1*%
%TO.N,/PICO_GP15*%
X22225000Y-177800000D03*
%TD*%
D11*
%TO.P,J9,8*%
%TO.N,/PICO_GP0*%
X22225000Y-133985000D03*
%TO.P,J9,7*%
%TO.N,/PICO_GP1*%
X22225000Y-136525000D03*
%TO.P,J9,6*%
%TO.N,/PICO_GP2*%
X22225000Y-139065000D03*
%TO.P,J9,5*%
%TO.N,/PICO_GP3*%
X22225000Y-141605000D03*
%TO.P,J9,4*%
%TO.N,/PICO_GP4*%
X22225000Y-144145000D03*
%TO.P,J9,3*%
%TO.N,/PICO_GP5*%
X22225000Y-146685000D03*
%TO.P,J9,2*%
%TO.N,/PICO_GP6*%
X22225000Y-149225000D03*
D12*
%TO.P,J9,1*%
%TO.N,/PICO_GP7*%
X22225000Y-151765000D03*
%TD*%
D11*
%TO.P,J8,8*%
%TO.N,+3V3*%
X19685000Y-133985000D03*
%TO.P,J8,7*%
X19685000Y-136525000D03*
%TO.P,J8,6*%
X19685000Y-139065000D03*
%TO.P,J8,5*%
X19685000Y-141605000D03*
%TO.P,J8,4*%
X19685000Y-144145000D03*
%TO.P,J8,3*%
X19685000Y-146685000D03*
%TO.P,J8,2*%
X19685000Y-149225000D03*
D12*
%TO.P,J8,1*%
X19685000Y-151765000D03*
%TD*%
D11*
%TO.P,J7,8*%
%TO.N,+3V3*%
X19685000Y-160020000D03*
%TO.P,J7,7*%
X19685000Y-162560000D03*
%TO.P,J7,6*%
X19685000Y-165100000D03*
%TO.P,J7,5*%
X19685000Y-167640000D03*
%TO.P,J7,4*%
X19685000Y-170180000D03*
%TO.P,J7,3*%
X19685000Y-172720000D03*
%TO.P,J7,2*%
X19685000Y-175260000D03*
D12*
%TO.P,J7,1*%
X19685000Y-177800000D03*
%TD*%
D11*
%TO.P,J2,8*%
%TO.N,GND*%
X17145000Y-133985000D03*
%TO.P,J2,7*%
X17145000Y-136525000D03*
%TO.P,J2,6*%
X17145000Y-139065000D03*
%TO.P,J2,5*%
X17145000Y-141605000D03*
%TO.P,J2,4*%
X17145000Y-144145000D03*
%TO.P,J2,3*%
X17145000Y-146685000D03*
%TO.P,J2,2*%
X17145000Y-149225000D03*
D12*
%TO.P,J2,1*%
X17145000Y-151765000D03*
%TD*%
D11*
%TO.P,J1,8*%
%TO.N,GND*%
X17145000Y-160020000D03*
%TO.P,J1,7*%
X17145000Y-162560000D03*
%TO.P,J1,6*%
X17145000Y-165100000D03*
%TO.P,J1,5*%
X17145000Y-167640000D03*
%TO.P,J1,4*%
X17145000Y-170180000D03*
%TO.P,J1,3*%
X17145000Y-172720000D03*
%TO.P,J1,2*%
X17145000Y-175260000D03*
D12*
%TO.P,J1,1*%
X17145000Y-177800000D03*
%TD*%
D10*
%TO.P,J5,3*%
%TO.N,GND*%
X66675000Y-146050000D03*
%TO.P,J5,2*%
%TO.N,/PICO_ADC2*%
X66675000Y-143510000D03*
%TO.P,J5,1*%
%TO.N,+3V3*%
X66675000Y-140970000D03*
%TD*%
%TO.P,J4,3*%
%TO.N,GND*%
X64135000Y-146050000D03*
%TO.P,J4,2*%
%TO.N,/PICO_ADC1*%
X64135000Y-143510000D03*
%TO.P,J4,1*%
%TO.N,+3V3*%
X64135000Y-140970000D03*
%TD*%
%TO.P,J3,3*%
%TO.N,GND*%
X61595000Y-146050000D03*
%TO.P,J3,2*%
%TO.N,/PICO_ADC0*%
X61595000Y-143510000D03*
%TO.P,J3,1*%
%TO.N,+3V3*%
X61595000Y-140970000D03*
%TD*%
D14*
%TO.N,/PICO_I2C0_SCL*%
X58547000Y-168275000D03*
%TO.N,GND*%
X60833000Y-168402000D03*
%TO.N,+3V3*%
X68199000Y-178054000D03*
%TO.N,GND*%
X66675000Y-181737000D03*
X26797000Y-157226000D03*
X19812000Y-130810000D03*
%TO.N,/5V0*%
X57150000Y-128016000D03*
%TO.N,GND*%
X57150000Y-133604000D03*
X34417000Y-187960000D03*
%TO.N,+3V3*%
X35560000Y-187960000D03*
%TO.N,GND*%
X25146000Y-187579000D03*
%TO.N,+3V3*%
X26162000Y-187579000D03*
%TO.N,GND*%
X16129000Y-181610000D03*
%TO.N,+3V3*%
X20193000Y-181610000D03*
X55880000Y-165862000D03*
X25781000Y-152400000D03*
X24765000Y-130810000D03*
X57150000Y-137795000D03*
X69215000Y-140335000D03*
%TO.N,GND*%
X69215000Y-145669000D03*
X58547000Y-162941000D03*
X49403000Y-187706000D03*
X58298000Y-155443000D03*
X64648000Y-155443000D03*
X64643000Y-167894000D03*
X68199000Y-168783000D03*
%TO.N,+3V3*%
X65024000Y-164719000D03*
X66040000Y-172974000D03*
X68580000Y-164719000D03*
X44196000Y-187579000D03*
X55245000Y-135255000D03*
X54610000Y-135255000D03*
X53975000Y-135255000D03*
%TO.N,/5V0*%
X53975000Y-125095000D03*
X54610000Y-125095000D03*
X55245000Y-125095000D03*
%TO.N,/PICO_I2C0_SCL*%
X65278000Y-169545000D03*
%TO.N,/PICO_I2C0_SDA*%
X61849000Y-168783000D03*
%TD*%
D15*
%TO.N,/PICO_ADC1*%
X62865000Y-142240000D02*
X64135000Y-143510000D01*
X57404000Y-142240000D02*
X62865000Y-142240000D01*
X54229000Y-145415000D02*
X57404000Y-142240000D01*
X50800000Y-145415000D02*
X54229000Y-145415000D01*
%TO.N,/PICO_I2C1_SCL*%
X46482000Y-163195000D02*
X47752000Y-163195000D01*
X37338000Y-172339000D02*
X46482000Y-163195000D01*
X37338000Y-179959000D02*
X37338000Y-172339000D01*
X47752000Y-163195000D02*
X50800000Y-163195000D01*
X47560998Y-163195000D02*
X47752000Y-163195000D01*
%TO.N,/PICO_GP0*%
X33020000Y-125095000D02*
X28575000Y-125095000D01*
X22225000Y-131445000D02*
X22225000Y-133985000D01*
X28575000Y-125095000D02*
X22225000Y-131445000D01*
%TO.N,/PICO_GP1*%
X33020000Y-127635000D02*
X29210000Y-127635000D01*
X29210000Y-127635000D02*
X25400000Y-131445000D01*
X25400000Y-133350000D02*
X22225000Y-136525000D01*
X25400000Y-131445000D02*
X25400000Y-133350000D01*
%TO.N,/PICO_GP2*%
X28575000Y-132715000D02*
X22225000Y-139065000D01*
X33020000Y-132715000D02*
X28575000Y-132715000D01*
%TO.N,/PICO_GP3*%
X28575000Y-135255000D02*
X22225000Y-141605000D01*
X33020000Y-135255000D02*
X28575000Y-135255000D01*
%TO.N,/PICO_GP4*%
X28575000Y-137795000D02*
X22225000Y-144145000D01*
X33020000Y-137795000D02*
X28575000Y-137795000D01*
%TO.N,/PICO_GP5*%
X28575000Y-140335000D02*
X22225000Y-146685000D01*
X33020000Y-140335000D02*
X28575000Y-140335000D01*
%TO.N,/PICO_GP6*%
X26035000Y-145415000D02*
X22225000Y-149225000D01*
X33020000Y-145415000D02*
X26035000Y-145415000D01*
%TO.N,/PICO_GP7*%
X26035000Y-147955000D02*
X22225000Y-151765000D01*
X33020000Y-147955000D02*
X26035000Y-147955000D01*
%TO.N,/PICO_GP8*%
X29464000Y-150495000D02*
X22225000Y-157734000D01*
X22225000Y-157734000D02*
X22225000Y-160020000D01*
X33020000Y-150495000D02*
X29464000Y-150495000D01*
%TO.N,/PICO_GP9*%
X25654000Y-159131000D02*
X22225000Y-162560000D01*
X25654000Y-156972000D02*
X25654000Y-159131000D01*
X29591000Y-153035000D02*
X25654000Y-156972000D01*
X33020000Y-153035000D02*
X29591000Y-153035000D01*
%TO.N,/PICO_GP10*%
X29210000Y-158115000D02*
X22225000Y-165100000D01*
X33020000Y-158115000D02*
X29210000Y-158115000D01*
%TO.N,/PICO_GP11*%
X29210000Y-160655000D02*
X22225000Y-167640000D01*
X33020000Y-160655000D02*
X29210000Y-160655000D01*
%TO.N,/PICO_GP12*%
X29210000Y-163195000D02*
X22225000Y-170180000D01*
X33020000Y-163195000D02*
X29210000Y-163195000D01*
%TO.N,/PICO_GP13*%
X29210000Y-165735000D02*
X22225000Y-172720000D01*
X33020000Y-165735000D02*
X29210000Y-165735000D01*
%TO.N,/PICO_GP14*%
X26670000Y-170815000D02*
X22225000Y-175260000D01*
X33020000Y-170815000D02*
X26670000Y-170815000D01*
%TO.N,/PICO_GP15*%
X26670000Y-173355000D02*
X22225000Y-177800000D01*
X33020000Y-173355000D02*
X26670000Y-173355000D01*
%TO.N,/PICO_I2C0_SCL*%
X56859001Y-160618001D02*
X56859001Y-167984001D01*
X54356000Y-158115000D02*
X56859001Y-160618001D01*
X50800000Y-158115000D02*
X54356000Y-158115000D01*
X57150000Y-168275000D02*
X56859001Y-167984001D01*
X58547000Y-168275000D02*
X57150000Y-168275000D01*
X58547000Y-168783000D02*
X58547000Y-168275000D01*
X59309000Y-169545000D02*
X58547000Y-168783000D01*
X65278000Y-169545000D02*
X59309000Y-169545000D01*
X65278000Y-169545000D02*
X65278000Y-168979315D01*
X65278000Y-168979315D02*
X66802000Y-167455315D01*
X66802000Y-164338000D02*
X68580000Y-162560000D01*
X66802000Y-167455315D02*
X66802000Y-164338000D01*
%TO.N,/PICO_I2C0_SDA*%
X50800000Y-160655000D02*
X50800000Y-161036000D01*
X61849000Y-166751000D02*
X66040000Y-162560000D01*
X61849000Y-168783000D02*
X61849000Y-166751000D01*
%TD*%
M02*
